# xmcd CD database file
#
# Track frame offsets:
#	150
#	13500
#	35590
#	53629
#	66629
#	76776
#	91374
#	105849
#
# Disc length: 1659 seconds
#
# Revision: 0
# Processed by: cddbd v1.5.1PL0 Copyright (c) Steve Scherf et al.
# Submitted via: CDex 1.51
#
DISCID=58067908
DTITLE=Count Basie and Sarah Vaughn - Diverse
DYEAR=1900
DGENRE=Jazz
TTITLE0=I cried for you
TTITLE1=Little man
TTITLE2=Lover man
TTITLE3=Mean to me
TTITLE4=Perdido
TTITLE5=There are such things
TTITLE6=Until I met you
TTITLE7=You go to my head
EXTD=
EXTT0=
EXTT1=
EXTT2=
EXTT3=
EXTT4=
EXTT5=
EXTT6=
EXTT7=
PLAYORDER=
